<html>
<head>
<meta charset="UTF-8">
<meta name="viewport" content="width=device-width, initial-scale=1.0"/>

<style>
.comment
{
    padding-left: 20px;
    margin-top: 4px;
    margin-right: 4px;
    margin-bottom: 4px;
    border: 2px #000 solid;
}
.submission
{
    border: 4px #00f solid;
    padding-left: 20px;
}
.hidden
{
    display: none;
}
</style>
</head>
<body><div class="submission" id="t3_67cwfd">
    <p class="userinfo">
        <a href="https://www.reddit.com/u/vcdupper">vcdupper</a>
        <span class="score"> | 15 points</span>
        <span class="timestamp"> | Apr 24 2017 23:43:40</span>
    </p>
    <strong>[MOVIES] Twilight.Saga.Pentalogy.2008-2011.1080p.BluRay.x265.HEVC.AAC 5.1-Qman [13.14GB]</strong>
    <p><p>Add mega<br>
.nz/#F!tjozFQgK<br>
!XCC0_fL3SBYPsHctsxOyhw  </p>
<hr>
<h3><a href="https://youtu.be/ixZnhA7Wmq4">Unsure How To Download?</a>  &lt;------CLICK HERE!!!</h3>
<hr>
<h3>Media Info (Twilight)</h3>
<p>General<br>
Format : Matroska<br>
Format version : Version 4 / Version 2<br>
File size : 2.71 GiB<br>
Duration : 2 h 1 min<br>
Overall bit rate : 3 187 kb/s<br>
Encoded date : UTC 2015-03-08 05:49:30<br>
Writing application : mkvmerge v7.7.0 ('Six Voices') 64bit built on Feb 28 2015 23:39:33
Writing library : libebml v1.3.1 + libmatroska v1.4.2 / Lavf55.12.0   </p>
<p>Video<br>
ID : 1<br>
Format : HEVC<br>
Format/Info : High Efficiency Video Coding<br>
Format profile : Main@L4@Main<br>
Codec ID : V_MPEGH/ISO/HEVC<br>
Duration : 2 h 1 min<br>
Bit rate : 2 929 kb/s<br>
Width : 1 920 pixels<br>
Height : 800 pixels<br>
Display aspect ratio : 2.40:1<br>
Frame rate mode : Constant<br>
Frame rate : 23.976 (24000/1001) FPS<br>
Color space : YUV<br>
Chroma subsampling : 4:2:0<br>
Bit depth : 8 bits<br>
Bits/(Pixel*Frame) : 0.080<br>
Stream size : 2.49 GiB (92%)<br>
Writing library : x265 1.4:[Windows][GCC 4.9.0][64 bit]<br>
Language : English<br>
Default : Yes<br>
Forced : No  </p>
<p>Audio<br>
ID : 2<br>
Format : AAC<br>
Format/Info : Advanced Audio Codec<br>
Format profile : HE-AACv2 / HE-AAC / LC<br>
Codec ID : A_AAC<br>
Duration : 2 h 1 min<br>
Bit rate : 256 kb/s<br>
Channel(s) : 2 channels / 6 channels / 6 channels<br>
Channel positions : Front: L R / Front: L C R, Side: L R, LFE /  Front: L C R, Side: L R, LFE<br>
Sampling rate : 48.0 kHz / 48.0 kHz / 24.0 kHz<br>
Frame rate : 23.438 FPS (1024 spf)<br>
Compression mode : Lossy<br>
Delay relative to video : -105 ms<br>
Stream size : 223 MiB (8%)<br>
Title : Surround<br>
Language : English<br>
Default : Yes<br>
Forced : No  </p>
<hr>
<h3>Media Info (Twilight Saga: New Moon)</h3>
<p>General<br>
Format : Matroska<br>
Format version : Version 4 / Version 2<br>
File size : 3.08 GiB<br>
Duration : 2 h 10 min<br>
Overall bit rate : 3 371 kb/s<br>
Encoded date : UTC 2015-03-15 00:10:05<br>
Writing application : mkvmerge v7.7.0 ('Six Voices') 32bit built on Feb 28 2015 23:23:00<br>
Writing library : libebml v1.3.1 + libmatroska v1.4.2  </p>
<p>Video<br>
ID : 1<br>
Format : HEVC<br>
Format/Info : High Efficiency Video Coding<br>
Codec ID : V_MPEGH/ISO/HEVC<br>
Duration : 2 h 10 min<br>
Bit rate : 3 111 kb/s<br>
Width : 1 920 pixels<br>
Height : 800 pixels<br>
Display aspect ratio : 2.40:1<br>
Frame rate mode : Constant<br>
Frame rate : 23.976 (23976/1000) FPS<br>
Bits/(Pixel*Frame) : 0.084<br>
Stream size : 2.84 GiB (92%)<br>
Language : English<br>
Default : Yes<br>
Forced : No  </p>
<p>Audio<br>
ID : 2<br>
Format : AAC<br>
Format/Info : Advanced Audio Codec<br>
Format profile : LC<br>
Codec ID : A_AAC<br>
Duration : 2 h 10 min<br>
Bit rate : 258 kb/s<br>
Channel(s) : 6 channels<br>
Channel positions : Front: L C R, Side: L R, LFE<br>
Sampling rate : 48.0 kHz<br>
Frame rate : 46.875 FPS (1024 spf)<br>
Compression mode : Lossy<br>
Delay relative to video : 9 ms<br>
Stream size : 241 MiB (8%)<br>
Language : English<br>
Default : Yes<br>
Forced : No  </p>
<hr>
<h3>Media Info (Twilight Saga: Eclipse)</h3>
<p>General<br>
Format : Matroska<br>
Format version : Version 4 / Version 2<br>
File size : 2.48 GiB<br>
Duration : 2 h 3 min<br>
Overall bit rate : 2 863 kb/s<br>
Encoded date : UTC 2015-08-31 18:00:26<br>
Writing application : mkvmerge v8.3.0 ('Over the Horizon') 64bit<br>
Writing library : libebml v1.3.1 + libmatroska v1.4.2  </p>
<p>Video<br>
ID : 1<br>
Format : HEVC<br>
Format/Info : High Efficiency Video Coding<br>
Format profile : Main@L4@Main<br>
Codec ID : V_MPEGH/ISO/HEVC<br>
Duration : 2 h 3 min<br>
Bit rate : 2 606 kb/s<br>
Width : 1 920 pixels<br>
Height : 800 pixels<br>
Display aspect ratio : 2.40:1<br>
Frame rate mode : Constant<br>
Frame rate : 23.976 (24000/1001) FPS<br>
Color space : YUV<br>
Chroma subsampling : 4:2:0<br>
Bit depth : 8 bits<br>
Bits/(Pixel*Frame) : 0.071<br>
Stream size : 2.26 GiB (91%)<br>
Writing library : x265 1.5:[Windows][GCC 4.9.0][64 bit]<br>
Language : English<br>
Default : Yes<br>
Forced : No  </p>
<p>Audio<br>
ID : 2<br>
Format : AAC<br>
Format/Info : Advanced Audio Codec<br>
Format profile : HE-AAC / LC<br>
Codec ID : A_AAC<br>
Duration : 2 h 3 min<br>
Bit rate : 256 kb/s<br>
Channel(s) : 6 channels<br>
Channel positions : Front: L C R, Side: L R, LFE<br>
Sampling rate : 48.0 kHz / 24.0 kHz<br>
Frame rate : 23.438 FPS (1024 spf)<br>
Compression mode : Lossy<br>
Delay relative to video : -105 ms<br>
Stream size : 227 MiB (9%)<br>
Language : English<br>
Default : Yes<br>
Forced : No  </p>
<hr>
<h3>Media Info (Twilight Saga: Breaking Dawn - Part 1)</h3>
<p>General<br>
Format : Matroska<br>
Format version : Version 4 / Version 2<br>
File size : 2.44 GiB<br>
Duration : 1 h 57 min<br>
Overall bit rate : 2 984 kb/s<br>
Encoded date : UTC 2015-08-31 18:02:35<br>
Writing application : mkvmerge v8.3.0 ('Over the Horizon') 64bit<br>
Writing library : libebml v1.3.1 + libmatroska v1.4.2  </p>
<p>Video<br>
ID : 1<br>
Format : HEVC<br>
Format/Info : High Efficiency Video Coding<br>
Format profile : Main@L4@Main<br>
Codec ID : V_MPEGH/ISO/HEVC<br>
Duration : 1 h 57 min<br>
Bit rate : 2 726 kb/s<br>
Width : 1 920 pixels<br>
Height : 800 pixels<br>
Display aspect ratio : 2.40:1<br>
Frame rate mode : Constant<br>
Frame rate : 23.976 (24000/1001) FPS<br>
Color space : YUV<br>
Chroma subsampling : 4:2:0<br>
Bit depth : 8 bits<br>
Bits/(Pixel*Frame) : 0.074<br>
Stream size : 2.23 GiB (91%)<br>
Writing library : x265 1.5:[Windows][GCC 4.9.0][64 bit]<br>
Language : English<br>
Default : Yes<br>
Forced : No  </p>
<p>Audio<br>
ID : 2<br>
Format : AAC<br>
Format/Info : Advanced Audio Codec<br>
Format profile : HE-AAC / LC<br>
Codec ID : A_AAC<br>
Duration : 1 h 57 min<br>
Bit rate : 256 kb/s<br>
Channel(s) : 6 channels<br>
Channel positions : Front: L C R, Side: L R, LFE<br>
Sampling rate : 48.0 kHz / 24.0 kHz<br>
Frame rate : 23.438 FPS (1024 spf)<br>
Compression mode : Lossy<br>
Delay relative to video : -105 ms<br>
Stream size : 214 MiB (9%)<br>
Language : English<br>
Default : Yes<br>
Forced : No  </p>
<hr>
<h3>Media Info (Twilight Saga: Breaking Dawn - Part 2)</h3>
<p>General<br>
Format : Matroska<br>
Format version : Version 4 / Version 2<br>
File size : 2.43 GiB<br>
Duration : 1 h 55 min<br>
Overall bit rate : 3 022 kb/s<br>
Encoded date : UTC 2015-03-25 03:47:42<br>
Writing application : mkvmerge v7.7.0 ('Six Voices') 32bit built on Feb 28 2015 23:23:00<br>
Writing library : libebml v1.3.1 + libmatroska v1.4.2  </p>
<p>Video<br>
ID : 1<br>
Format : HEVC<br>
Format/Info : High Efficiency Video Coding<br>
Codec ID : V_MPEGH/ISO/HEVC<br>
Duration : 1 h 55 min<br>
Bit rate : 2 758 kb/s<br>
Width : 1 920 pixels<br>
Height : 800 pixels<br>
Display aspect ratio : 2.40:1<br>
Frame rate mode : Constant<br>
Frame rate : 24.000 FPS<br>
Bits/(Pixel*Frame) : 0.075<br>
Stream size : 2.22 GiB (91%)<br>
Language : English<br>
Default : Yes<br>
Forced : No  </p>
<p>Audio<br>
ID : 2<br>
Format : AAC<br>
Format/Info : Advanced Audio Codec<br>
Format profile : LC<br>
Codec ID : A_AAC<br>
Duration : 1 h 55 min<br>
Bit rate : 265 kb/s<br>
Channel(s) : 6 channels<br>
Channel positions : Front: L C R, Side: L R, LFE<br>
Sampling rate : 48.0 kHz<br>
Frame rate : 46.875 FPS (1024 spf)<br>
Compression mode : Lossy<br>
Delay relative to video : 9 ms<br>
Stream size : 216 MiB (9%)<br>
Language : English<br>
Default : Yes<br>
Forced : No  </p></p>
    <p class="toolbar">
        <a href="https://www.reddit.com/r/megalinks/comments/67cwfd">permalink</a>
    </p>
</div>

</body>

<script>
function toggle_collapse(comment_div)
{
    var button = comment_div.getElementsByClassName("toggle_hide_button")[0];
    var collapsible = comment_div.getElementsByClassName("collapsible")[0];
    if (collapsible.classList.contains("hidden"))
    {
        collapsible.classList.remove("hidden");
        button.innerText = "[-]";
    }
    else
    {
        collapsible.classList.add("hidden");
        button.innerText = "[+]";
    }
}
</script>
</html>
